<svg height="1500" viewBox="0 0 1500 1500" width="1500" xmlns="http://www.w3.org/2000/svg"><path d="m1351.988 811.489-56.674-30.744L1238.639 750l1.712 64.454 1.711 64.454 39.381-33.253 22.723 37.05 23.053-14.139-22.723-37.049z" fill="#231f20"/><path d="M1379.772 764.535H844.076a3.595 3.595 0 0 1-3.595-3.595v-19.821a3.595 3.595 0 0 1 3.595-3.595h535.696a3.595 3.595 0 0 1 3.595 3.595v19.821a3.595 3.595 0 0 1-3.595 3.595z" fill="#fff"/><g fill="#231f20"><path d="M1379.772 766.562H844.076a5.627 5.627 0 0 1-5.621-5.622v-19.821c0-3.1 2.522-5.622 5.621-5.622h535.696c3.1 0 5.622 2.522 5.622 5.622v19.821a5.63 5.63 0 0 1-5.622 5.622zm-535.696-27.011a1.57 1.57 0 0 0-1.568 1.568v19.821a1.57 1.57 0 0 0 1.568 1.568h535.696a1.57 1.57 0 0 0 1.568-1.568v-19.821a1.57 1.57 0 0 0-1.568-1.568z"/><path d="M1156.836 750c0 4.961.442 9.818 1.288 14.535h161.03a82.29 82.29 0 0 0 1.288-14.535c0-4.242-.323-8.408-.946-12.476h-161.715a82.501 82.501 0 0 0-.945 12.476zM296.78 1103.776a.815.815 0 0 1 1.63 0 .815.815 0 0 1-1.63 0zm0-8.101c0-.45.37-.82.81-.82.45 0 .82.37.82.82 0 .44-.37.81-.82.81a.82.82 0 0 1-.81-.81zm0-8.109a.815.815 0 0 1 1.63 0 .815.815 0 0 1-1.63 0zm0-8.11a.815.815 0 0 1 1.63 0 .815.815 0 0 1-1.63 0zm0-8.111c0-.44.37-.81.81-.81.45 0 .82.37.82.81a.815.815 0 0 1-1.63 0zm0-8.099a.815.815 0 0 1 1.63 0c0 .44-.37.81-.82.81a.82.82 0 0 1-.81-.81zm0-8.111a.815.815 0 0 1 1.63 0 .815.815 0 0 1-1.63 0zm0-8.109a.815.815 0 0 1 1.63 0 .815.815 0 0 1-1.63 0zm0-8.101a.815.815 0 0 1 1.63 0c0 .44-.37.81-.82.81a.82.82 0 0 1-.81-.81zm0-8.109a.815.815 0 0 1 1.63 0 .815.815 0 0 1-1.63 0zm0-8.11a.815.815 0 0 1 1.63 0 .815.815 0 0 1-1.63 0zm0-8.111c0-.44.37-.81.81-.81.45 0 .82.37.82.81 0 .45-.37.82-.82.82a.82.82 0 0 1-.81-.82zm0-8.099a.815.815 0 0 1 1.63 0 .815.815 0 0 1-1.63 0zm0-8.111a.815.815 0 0 1 1.63 0 .815.815 0 0 1-1.63 0zm0-8.109c0-.44.37-.81.81-.81.45 0 .82.37.82.81 0 .45-.37.82-.82.82a.822.822 0 0 1-.81-.82zm0-8.101a.815.815 0 0 1 1.63 0 .815.815 0 0 1-1.63 0zm0-8.109a.815.815 0 0 1 1.63 0 .815.815 0 0 1-1.63 0zm0-8.11c0-.44.37-.81.81-.81.45 0 .82.37.82.81a.815.815 0 0 1-1.63 0zm0-8.1a.815.815 0 0 1 1.63 0c0 .44-.37.81-.82.81a.82.82 0 0 1-.81-.81zm0-8.11a.815.815 0 0 1 1.63 0 .815.815 0 0 1-1.63 0zm0-8.111a.815.815 0 0 1 1.63 0 .815.815 0 0 1-1.63 0zm0-8.1c0-.45.37-.82.81-.82.45 0 .82.37.82.82 0 .44-.37.81-.82.81a.819.819 0 0 1-.81-.81zm0-8.11a.815.815 0 0 1 1.63 0 .815.815 0 0 1-1.63 0zm0-8.109a.815.815 0 0 1 1.63 0 .815.815 0 0 1-1.63 0zm0-8.101c0-.45.37-.82.81-.82.45 0 .82.37.82.82 0 .44-.37.8-.82.8a.81.81 0 0 1-.81-.8zm0-8.109a.815.815 0 0 1 1.63 0c0 .44-.37.81-.82.81a.82.82 0 0 1-.81-.81zm0-8.11a.815.815 0 0 1 1.63 0 .815.815 0 0 1-1.63 0zm0-8.111c0-.44.37-.81.81-.81.45 0 .82.37.82.81a.815.815 0 0 1-1.63 0zm0-8.1a.815.815 0 0 1 1.63 0c0 .44-.37.81-.82.81a.819.819 0 0 1-.81-.81zm0-8.11a.815.815 0 0 1 1.63 0 .815.815 0 0 1-1.63 0zm0-8.109c0-.44.37-.81.81-.81.45 0 .82.37.82.81a.815.815 0 0 1-1.63 0zm0-8.101a.815.815 0 0 1 1.63 0c0 .44-.37.81-.82.81a.819.819 0 0 1-.81-.81zm0-8.109a.815.815 0 0 1 1.63 0 .815.815 0 0 1-1.63 0zm0-8.11c0-.44.37-.81.81-.81.45 0 .82.37.82.81a.815.815 0 0 1-1.63 0zm0-8.111c0-.44.37-.81.81-.81.45 0 .82.37.82.81 0 .45-.37.82-.82.82a.82.82 0 0 1-.81-.82zm0-8.1a.815.815 0 0 1 1.63 0c0 .44-.37.81-.82.81a.819.819 0 0 1-.81-.81zm0-8.11a.815.815 0 0 1 1.63 0 .815.815 0 0 1-1.63 0zm0-8.109c0-.44.37-.81.81-.81.45 0 .82.37.82.81 0 .45-.37.82-.82.82a.822.822 0 0 1-.81-.82zm0-8.101a.815.815 0 0 1 1.63 0c0 .44-.37.81-.82.81a.819.819 0 0 1-.81-.81zm0-8.109a.815.815 0 0 1 1.63 0 .815.815 0 0 1-1.63 0zm0-8.11c0-.44.37-.81.81-.81.45 0 .82.37.82.81a.815.815 0 0 1-1.63 0zm0-8.1a.815.815 0 0 1 1.63 0c0 .44-.37.81-.82.81a.82.82 0 0 1-.81-.81zm0-8.111a.815.815 0 0 1 1.63 0 .815.815 0 0 1-1.63 0zm0-8.11a.815.815 0 0 1 1.63 0 .815.815 0 0 1-1.63 0zm0-8.1c0-.45.37-.82.81-.82.45 0 .82.37.82.82 0 .44-.37.81-.82.81a.819.819 0 0 1-.81-.81zm0-8.11a.815.815 0 0 1 1.63 0 .815.815 0 0 1-1.63 0zm0-8.109a.815.815 0 0 1 1.63 0 .815.815 0 0 1-1.63 0zm0-8.11c0-.44.37-.81.81-.81.45 0 .82.37.82.81 0 .45-.37.82-.82.82a.822.822 0 0 1-.81-.82zm0-8.1a.815.815 0 0 1 1.63 0c0 .44-.37.81-.82.81a.82.82 0 0 1-.81-.81zm0-8.111a.815.815 0 0 1 1.63 0 .815.815 0 0 1-1.63 0zm0-8.11c0-.44.37-.81.81-.81.45 0 .82.37.82.81a.815.815 0 0 1-1.63 0zm0-8.1a.815.815 0 0 1 1.63 0c0 .44-.37.81-.82.81a.819.819 0 0 1-.81-.81zm0-8.11a.815.815 0 0 1 1.63 0 .815.815 0 0 1-1.63 0zm0-8.109c0-.44.37-.81.81-.81.45 0 .82.37.82.81a.815.815 0 0 1-1.63 0zm0-8.101c0-.45.37-.82.81-.82.45 0 .82.37.82.82 0 .44-.37.81-.82.81a.819.819 0 0 1-.81-.81zm0-8.109a.815.815 0 0 1 1.63 0 .815.815 0 0 1-1.63 0zm0-8.111a.815.815 0 0 1 1.63 0 .815.815 0 0 1-1.63 0zm0-8.11c0-.44.37-.81.81-.81.45 0 .82.37.82.81 0 .45-.37.82-.82.82a.82.82 0 0 1-.81-.82zm0-8.1a.815.815 0 0 1 1.63 0c0 .44-.37.81-.82.81a.819.819 0 0 1-.81-.81zm0-8.11a.815.815 0 0 1 1.63 0 .815.815 0 0 1-1.63 0zm0-8.109c0-.44.37-.81.81-.81.45 0 .82.37.82.81a.815.815 0 0 1-1.63 0zm0-8.101a.815.815 0 0 1 1.63 0 .815.815 0 0 1-1.63 0zm0-8.109a.815.815 0 0 1 1.63 0 .815.815 0 0 1-1.63 0zm0-8.11c0-.44.37-.81.81-.81.45 0 .82.37.82.81a.815.815 0 0 1-1.63 0zm0-8.1a.815.815 0 0 1 1.63 0c0 .44-.37.81-.82.81a.82.82 0 0 1-.81-.81zm0-8.111a.815.815 0 0 1 1.63 0 .815.815 0 0 1-1.63 0zm0-8.11a.815.815 0 0 1 1.63 0 .815.815 0 0 1-1.63 0zm0-8.109c0-.44.37-.81.81-.81.45 0 .82.37.82.81 0 .45-.37.82-.82.82a.823.823 0 0 1-.81-.82zm0-8.101a.815.815 0 0 1 1.63 0 .815.815 0 0 1-1.63 0zm0-8.109a.815.815 0 0 1 1.63 0 .815.815 0 0 1-1.63 0zm0-8.11c0-.44.37-.81.81-.81.45 0 .82.37.82.81 0 .45-.37.82-.82.82a.822.822 0 0 1-.81-.82zm0-8.1a.815.815 0 0 1 1.63 0 .815.815 0 0 1-1.63 0zm0-8.111a.815.815 0 0 1 1.63 0 .815.815 0 0 1-1.63 0zm0-8.11c0-.44.37-.81.81-.81.45 0 .82.37.82.81a.815.815 0 0 1-1.63 0zm0-8.1a.815.815 0 0 1 1.63 0c0 .44-.37.81-.82.81a.82.82 0 0 1-.81-.81zm0-8.11a.815.815 0 0 1 1.63 0 .815.815 0 0 1-1.63 0zm0-8.109a.815.815 0 0 1 1.63 0 .815.815 0 0 1-1.63 0zm0-8.1c0-.45.37-.82.81-.82.45 0 .82.37.82.82 0 .44-.37.81-.82.81a.82.82 0 0 1-.81-.81zm0-8.11a.815.815 0 0 1 1.63 0 .815.815 0 0 1-1.63 0zm0-8.111a.815.815 0 0 1 1.63 0 .815.815 0 0 1-1.63 0zm0-8.099a.815.815 0 0 1 1.63 0c0 .44-.37.81-.82.81a.82.82 0 0 1-.81-.81zm0-8.111a.815.815 0 0 1 1.63 0c0 .44-.37.81-.82.81a.82.82 0 0 1-.81-.81zm0-8.11a.815.815 0 0 1 1.63 0 .815.815 0 0 1-1.63 0zm0-8.109c0-.44.37-.81.81-.81.45 0 .82.37.82.81a.815.815 0 0 1-1.63 0zm0-8.1a.815.815 0 0 1 1.63 0 .815.815 0 0 1-1.63 0zm0-8.11a.815.815 0 0 1 1.63 0 .815.815 0 0 1-1.63 0zm0-8.111c0-.44.37-.81.81-.81.45 0 .82.37.82.81 0 .45-.37.82-.82.82a.821.821 0 0 1-.81-.82zm0-8.099a.815.815 0 0 1 1.63 0c0 .44-.37.81-.82.81a.82.82 0 0 1-.81-.81zm180.97 705.3c0-.45.36-.81.81-.81.44 0 .81.36.81.81 0 .45-.37.81-.81.81-.45 0-.81-.36-.81-.81zm0-8.101c0-.45.36-.82.81-.82.44 0 .81.37.81.82 0 .44-.37.81-.81.81-.45 0-.81-.37-.81-.81zm0-8.109c0-.45.36-.81.81-.81.44 0 .81.36.81.81 0 .45-.37.81-.81.81-.45 0-.81-.36-.81-.81zm0-8.11c0-.45.36-.81.81-.81.44 0 .81.36.81.81 0 .45-.37.81-.81.81a.807.807 0 0 1-.81-.81zm0-8.111c0-.44.36-.81.81-.81.44 0 .81.37.81.81 0 .45-.37.81-.81.81a.806.806 0 0 1-.81-.81zm0-8.099c0-.45.36-.81.81-.81.44 0 .81.36.81.81 0 .44-.37.81-.81.81a.814.814 0 0 1-.81-.81zm0-8.111c0-.45.36-.81.81-.81.44 0 .81.36.81.81 0 .45-.37.81-.81.81a.806.806 0 0 1-.81-.81zm0-8.109c0-.45.36-.81.81-.81.44 0 .81.36.81.81 0 .45-.37.81-.81.81-.45 0-.81-.36-.81-.81zm0-8.101c0-.45.36-.81.81-.81.44 0 .81.36.81.81 0 .44-.37.81-.81.81-.45 0-.81-.37-.81-.81zm0-8.109c0-.45.36-.81.81-.81.44 0 .81.36.81.81 0 .45-.37.81-.81.81-.45 0-.81-.36-.81-.81zm0-8.11c0-.45.36-.81.81-.81.44 0 .81.36.81.81 0 .45-.37.81-.81.81a.807.807 0 0 1-.81-.81zm0-8.111c0-.44.36-.81.81-.81.44 0 .81.37.81.81 0 .45-.37.82-.81.82a.814.814 0 0 1-.81-.82zm0-8.099c0-.45.36-.81.81-.81.44 0 .81.36.81.81 0 .45-.37.81-.81.81a.808.808 0 0 1-.81-.81zm0-8.111c0-.45.36-.81.81-.81.44 0 .81.36.81.81 0 .45-.37.81-.81.81a.806.806 0 0 1-.81-.81zm0-8.109c0-.44.36-.81.81-.81.44 0 .81.37.81.81 0 .45-.37.82-.81.82a.816.816 0 0 1-.81-.82zm0-8.101c0-.45.36-.81.81-.81.44 0 .81.36.81.81 0 .45-.37.81-.81.81a.806.806 0 0 1-.81-.81zm0-8.109c0-.45.36-.81.81-.81.44 0 .81.36.81.81 0 .45-.37.81-.81.81-.45 0-.81-.36-.81-.81zm0-8.11c0-.44.36-.81.81-.81.44 0 .81.37.81.81 0 .45-.37.81-.81.81a.807.807 0 0 1-.81-.81zm0-8.1c0-.45.36-.81.81-.81.44 0 .81.36.81.81 0 .44-.37.81-.81.81-.45 0-.81-.37-.81-.81zm0-8.11c0-.45.36-.81.81-.81.44 0 .81.36.81.81 0 .45-.37.81-.81.81a.808.808 0 0 1-.81-.81zm0-8.111c0-.45.36-.81.81-.81.44 0 .81.36.81.81 0 .45-.37.81-.81.81a.806.806 0 0 1-.81-.81zm0-8.1c0-.45.36-.82.81-.82.44 0 .81.37.81.82 0 .44-.37.81-.81.81a.812.812 0 0 1-.81-.81zm0-8.11c0-.45.36-.81.81-.81.44 0 .81.36.81.81 0 .45-.37.81-.81.81a.806.806 0 0 1-.81-.81zm0-8.109c0-.45.36-.81.81-.81.44 0 .81.36.81.81 0 .45-.37.81-.81.81-.45 0-.81-.36-.81-.81zm0-8.101c0-.45.36-.82.81-.82.44 0 .81.37.81.82a.811.811 0 0 1-1.62 0zm0-8.109c0-.45.36-.81.81-.81.44 0 .81.36.81.81 0 .44-.37.81-.81.81-.45 0-.81-.37-.81-.81zm0-8.11c0-.45.36-.81.81-.81.44 0 .81.36.81.81 0 .45-.37.81-.81.81a.808.808 0 0 1-.81-.81zm0-8.111c0-.44.36-.81.81-.81.44 0 .81.37.81.81 0 .45-.37.81-.81.81a.806.806 0 0 1-.81-.81zm0-8.1c0-.45.36-.81.81-.81.44 0 .81.36.81.81 0 .44-.37.81-.81.81a.812.812 0 0 1-.81-.81zm0-8.11c0-.45.36-.81.81-.81.44 0 .81.36.81.81 0 .45-.37.81-.81.81a.806.806 0 0 1-.81-.81zm0-8.109c0-.44.36-.81.81-.81.44 0 .81.37.81.81 0 .45-.37.81-.81.81-.45 0-.81-.36-.81-.81zm0-8.101c0-.45.36-.81.81-.81.44 0 .81.36.81.81 0 .44-.37.81-.81.81a.812.812 0 0 1-.81-.81zm0-8.109c0-.45.36-.81.81-.81.44 0 .81.36.81.81 0 .45-.37.81-.81.81a.807.807 0 0 1-.81-.81zm0-8.11c0-.44.36-.81.81-.81.44 0 .81.37.81.81 0 .45-.37.81-.81.81a.808.808 0 0 1-.81-.81zm0-8.111c0-.44.36-.81.81-.81.44 0 .81.37.81.81 0 .45-.37.82-.81.82a.814.814 0 0 1-.81-.82zm0-8.1c0-.45.36-.81.81-.81.44 0 .81.36.81.81 0 .44-.37.81-.81.81a.812.812 0 0 1-.81-.81zm0-8.11c0-.45.36-.81.81-.81.44 0 .81.36.81.81 0 .45-.37.81-.81.81a.806.806 0 0 1-.81-.81zm0-8.109c0-.44.36-.81.81-.81.44 0 .81.37.81.81 0 .45-.37.82-.81.82a.816.816 0 0 1-.81-.82zm0-8.101c0-.45.36-.81.81-.81.44 0 .81.36.81.81 0 .44-.37.81-.81.81a.812.812 0 0 1-.81-.81zm0-8.109c0-.45.36-.81.81-.81.44 0 .81.36.81.81 0 .45-.37.81-.81.81a.807.807 0 0 1-.81-.81zm0-8.11c0-.44.36-.81.81-.81.44 0 .81.37.81.81 0 .45-.37.81-.81.81a.808.808 0 0 1-.81-.81zm0-8.1c0-.45.36-.81.81-.81.44 0 .81.36.81.81 0 .44-.37.81-.81.81-.45 0-.81-.37-.81-.81zm0-8.111c0-.45.36-.81.81-.81.44 0 .81.36.81.81 0 .45-.37.81-.81.81-.45 0-.81-.36-.81-.81zm0-8.11c0-.45.36-.81.81-.81.44 0 .81.36.81.81 0 .45-.37.81-.81.81a.806.806 0 0 1-.81-.81zm0-8.1c0-.45.36-.82.81-.82.44 0 .81.37.81.82 0 .44-.37.81-.81.81a.812.812 0 0 1-.81-.81zm0-8.11c0-.45.36-.81.81-.81.44 0 .81.36.81.81 0 .45-.37.81-.81.81a.805.805 0 0 1-.81-.81zm0-8.109c0-.45.36-.81.81-.81.44 0 .81.36.81.81 0 .45-.37.81-.81.81a.807.807 0 0 1-.81-.81zm0-8.11c0-.44.36-.81.81-.81.44 0 .81.37.81.81 0 .45-.37.82-.81.82a.816.816 0 0 1-.81-.82zm0-8.1c0-.45.36-.81.81-.81.44 0 .81.36.81.81 0 .44-.37.81-.81.81-.45 0-.81-.37-.81-.81zm0-8.111c0-.45.36-.81.81-.81.44 0 .81.36.81.81 0 .45-.37.81-.81.81-.45 0-.81-.36-.81-.81zm0-8.11c0-.44.36-.81.81-.81.44 0 .81.37.81.81 0 .45-.37.81-.81.81a.806.806 0 0 1-.81-.81zm0-8.1c0-.45.36-.81.81-.81.44 0 .81.36.81.81 0 .44-.37.81-.81.81a.812.812 0 0 1-.81-.81zm0-8.11c0-.45.36-.81.81-.81.44 0 .81.36.81.81 0 .45-.37.81-.81.81a.805.805 0 0 1-.81-.81zm0-8.109c0-.44.36-.81.81-.81.44 0 .81.37.81.81 0 .45-.37.81-.81.81a.807.807 0 0 1-.81-.81zm0-8.101c0-.45.36-.82.81-.82.44 0 .81.37.81.82 0 .44-.37.81-.81.81a.812.812 0 0 1-.81-.81zm0-8.109c0-.45.36-.81.81-.81.44 0 .81.36.81.81 0 .45-.37.81-.81.81a.807.807 0 0 1-.81-.81zm0-8.111c0-.45.36-.81.81-.81.44 0 .81.36.81.81 0 .45-.37.81-.81.81-.45 0-.81-.36-.81-.81zm0-8.11c0-.44.36-.81.81-.81.44 0 .81.37.81.81 0 .45-.37.82-.81.82a.814.814 0 0 1-.81-.82zm0-8.1c0-.45.36-.81.81-.81.44 0 .81.36.81.81 0 .44-.37.81-.81.81a.812.812 0 0 1-.81-.81zm0-8.11c0-.45.36-.81.81-.81.44 0 .81.36.81.81 0 .45-.37.81-.81.81a.805.805 0 0 1-.81-.81zm0-8.109c0-.44.36-.81.81-.81.44 0 .81.37.81.81 0 .45-.37.81-.81.81a.807.807 0 0 1-.81-.81zm0-8.101c0-.45.36-.81.81-.81.44 0 .81.36.81.81 0 .45-.37.81-.81.81a.805.805 0 0 1-.81-.81zm0-8.109c0-.45.36-.81.81-.81.44 0 .81.36.81.81 0 .45-.37.81-.81.81a.807.807 0 0 1-.81-.81zm0-8.11c0-.44.36-.81.81-.81.44 0 .81.37.81.81 0 .45-.37.81-.81.81a.808.808 0 0 1-.81-.81zm0-8.1c0-.45.36-.81.81-.81.44 0 .81.36.81.81 0 .44-.37.81-.81.81-.45 0-.81-.37-.81-.81zm0-8.111c0-.45.36-.81.81-.81.44 0 .81.36.81.81 0 .45-.37.81-.81.81a.806.806 0 0 1-.81-.81zm0-8.11c0-.45.36-.81.81-.81.44 0 .81.36.81.81 0 .45-.37.81-.81.81a.805.805 0 0 1-.81-.81zm0-8.109c0-.44.36-.81.81-.81.44 0 .81.37.81.81 0 .45-.37.82-.81.82a.816.816 0 0 1-.81-.82zm0-8.101c0-.45.36-.81.81-.81.44 0 .81.36.81.81 0 .45-.37.81-.81.81a.805.805 0 0 1-.81-.81zm0-8.109c0-.45.36-.81.81-.81.44 0 .81.36.81.81 0 .45-.37.81-.81.81a.807.807 0 0 1-.81-.81zm0-8.11c0-.44.36-.81.81-.81.44 0 .81.37.81.81 0 .45-.37.82-.81.82a.816.816 0 0 1-.81-.82zm0-8.1c0-.45.36-.81.81-.81.44 0 .81.36.81.81 0 .45-.37.81-.81.81a.807.807 0 0 1-.81-.81zm0-8.111c0-.45.36-.81.81-.81.44 0 .81.36.81.81 0 .45-.37.81-.81.81a.806.806 0 0 1-.81-.81zm0-8.11c0-.44.36-.81.81-.81.44 0 .81.37.81.81 0 .45-.37.81-.81.81a.805.805 0 0 1-.81-.81zm0-8.1c0-.45.36-.81.81-.81.44 0 .81.36.81.81 0 .44-.37.81-.81.81-.45 0-.81-.37-.81-.81zm0-8.11c0-.45.36-.81.81-.81.44 0 .81.36.81.81 0 .45-.37.81-.81.81a.805.805 0 0 1-.81-.81zm0-8.109c0-.45.36-.81.81-.81.44 0 .81.36.81.81 0 .45-.37.81-.81.81a.807.807 0 0 1-.81-.81zm0-8.1c0-.45.36-.82.81-.82.44 0 .81.37.81.82 0 .44-.37.81-.81.81a.814.814 0 0 1-.81-.81zm0-8.11c0-.45.36-.81.81-.81.44 0 .81.36.81.81 0 .45-.37.81-.81.81a.807.807 0 0 1-.81-.81zm0-8.111c0-.45.36-.81.81-.81.44 0 .81.36.81.81 0 .45-.37.81-.81.81-.45 0-.81-.36-.81-.81zm0-8.099c0-.45.36-.81.81-.81.44 0 .81.36.81.81 0 .44-.37.81-.81.81-.45 0-.81-.37-.81-.81zm0-8.111c0-.45.36-.81.81-.81.44 0 .81.36.81.81 0 .44-.37.81-.81.81-.45 0-.81-.37-.81-.81zm0-8.11c0-.45.36-.81.81-.81.44 0 .81.36.81.81 0 .45-.37.81-.81.81a.805.805 0 0 1-.81-.81zm0-8.109c0-.44.36-.81.81-.81.44 0 .81.37.81.81 0 .45-.37.81-.81.81a.807.807 0 0 1-.81-.81zm0-8.1c0-.45.36-.81.81-.81.44 0 .81.36.81.81 0 .45-.37.81-.81.81-.45 0-.81-.36-.81-.81zm0-8.11c0-.45.36-.81.81-.81.44 0 .81.36.81.81 0 .45-.37.81-.81.81a.807.807 0 0 1-.81-.81zm0-8.111c0-.44.36-.81.81-.81.44 0 .81.37.81.81 0 .45-.37.82-.81.82a.815.815 0 0 1-.81-.82zm0-8.099c0-.45.36-.81.81-.81.44 0 .81.36.81.81 0 .44-.37.81-.81.81-.45 0-.81-.37-.81-.81zm180.96 705.3c0-.45.36-.81.81-.81.45 0 .81.36.81.81 0 .45-.36.81-.81.81-.45 0-.81-.36-.81-.81zm0-8.101c0-.45.36-.82.81-.82a.815.815 0 0 1 0 1.63c-.45 0-.81-.37-.81-.81zm0-8.109c0-.45.36-.81.81-.81.45 0 .81.36.81.81 0 .45-.36.81-.81.81-.45 0-.81-.36-.81-.81zm0-8.11c0-.45.36-.81.81-.81.45 0 .81.36.81.81 0 .45-.36.81-.81.81a.807.807 0 0 1-.81-.81zm0-8.111c0-.44.36-.81.81-.81.45 0 .81.37.81.81 0 .45-.36.81-.81.81a.806.806 0 0 1-.81-.81zm0-8.099c0-.45.36-.81.81-.81.45 0 .81.36.81.81 0 .44-.36.81-.81.81a.814.814 0 0 1-.81-.81zm0-8.111c0-.45.36-.81.81-.81.45 0 .81.36.81.81 0 .45-.36.81-.81.81a.806.806 0 0 1-.81-.81zm0-8.109c0-.45.36-.81.81-.81.45 0 .81.36.81.81 0 .45-.36.81-.81.81-.45 0-.81-.36-.81-.81zm0-8.101c0-.45.36-.81.81-.81.45 0 .81.36.81.81 0 .44-.36.81-.81.81-.45 0-.81-.37-.81-.81zm0-8.109c0-.45.36-.81.81-.81.45 0 .81.36.81.81 0 .45-.36.81-.81.81-.45 0-.81-.36-.81-.81zm0-8.11c0-.45.36-.81.81-.81.45 0 .81.36.81.81 0 .45-.36.81-.81.81a.807.807 0 0 1-.81-.81zm0-8.111c0-.44.36-.81.81-.81a.815.815 0 0 1 0 1.63.814.814 0 0 1-.81-.82zm0-8.099c0-.45.36-.81.81-.81.45 0 .81.36.81.81 0 .45-.36.81-.81.81a.808.808 0 0 1-.81-.81zm0-8.111c0-.45.36-.81.81-.81.45 0 .81.36.81.81 0 .45-.36.81-.81.81a.806.806 0 0 1-.81-.81zm0-8.109c0-.44.36-.81.81-.81a.815.815 0 0 1 0 1.63.816.816 0 0 1-.81-.82zm0-8.101c0-.45.36-.81.81-.81.45 0 .81.36.81.81 0 .45-.36.81-.81.81a.806.806 0 0 1-.81-.81zm0-8.109c0-.45.36-.81.81-.81.45 0 .81.36.81.81 0 .45-.36.81-.81.81-.45 0-.81-.36-.81-.81zm0-8.11c0-.44.36-.81.81-.81.45 0 .81.37.81.81 0 .45-.36.81-.81.81a.807.807 0 0 1-.81-.81zm0-8.1c0-.45.36-.81.81-.81.45 0 .81.36.81.81 0 .44-.36.81-.81.81-.45 0-.81-.37-.81-.81zm0-8.11c0-.45.36-.81.81-.81.45 0 .81.36.81.81 0 .45-.36.81-.81.81a.808.808 0 0 1-.81-.81zm0-8.111c0-.45.36-.81.81-.81.45 0 .81.36.81.81 0 .45-.36.81-.81.81a.806.806 0 0 1-.81-.81zm0-8.1c0-.45.36-.82.81-.82a.815.815 0 0 1 0 1.63.812.812 0 0 1-.81-.81zm0-8.11c0-.45.36-.81.81-.81.45 0 .81.36.81.81 0 .45-.36.81-.81.81a.806.806 0 0 1-.81-.81zm0-8.109c0-.45.36-.81.81-.81.45 0 .81.36.81.81 0 .45-.36.81-.81.81-.45 0-.81-.36-.81-.81zm0-8.101c0-.45.36-.82.81-.82.45 0 .81.37.81.82 0 .44-.36.8-.81.8a.804.804 0 0 1-.81-.8zm0-8.109c0-.45.36-.81.81-.81.45 0 .81.36.81.81 0 .44-.36.81-.81.81-.45 0-.81-.37-.81-.81zm0-8.11c0-.45.36-.81.81-.81.45 0 .81.36.81.81 0 .45-.36.81-.81.81a.808.808 0 0 1-.81-.81zm0-8.111c0-.44.36-.81.81-.81.45 0 .81.37.81.81 0 .45-.36.81-.81.81a.806.806 0 0 1-.81-.81zm0-8.1c0-.45.36-.81.81-.81.45 0 .81.36.81.81 0 .44-.36.81-.81.81a.812.812 0 0 1-.81-.81zm0-8.11c0-.45.36-.81.81-.81.45 0 .81.36.81.81 0 .45-.36.81-.81.81a.806.806 0 0 1-.81-.81zm0-8.109c0-.44.36-.81.81-.81.45 0 .81.37.81.81 0 .45-.36.81-.81.81-.45 0-.81-.36-.81-.81zm0-8.101c0-.45.36-.81.81-.81.45 0 .81.36.81.81 0 .44-.36.81-.81.81a.812.812 0 0 1-.81-.81zm0-8.109c0-.45.36-.81.81-.81.45 0 .81.36.81.81 0 .45-.36.81-.81.81a.807.807 0 0 1-.81-.81zm0-8.11c0-.44.36-.81.81-.81.45 0 .81.37.81.81 0 .45-.36.81-.81.81a.808.808 0 0 1-.81-.81zm0-8.111c0-.44.36-.81.81-.81a.815.815 0 0 1 0 1.63.814.814 0 0 1-.81-.82zm0-8.1c0-.45.36-.81.81-.81.45 0 .81.36.81.81 0 .44-.36.81-.81.81a.812.812 0 0 1-.81-.81zm0-8.11c0-.45.36-.81.81-.81.45 0 .81.36.81.81 0 .45-.36.81-.81.81a.806.806 0 0 1-.81-.81zm0-8.109c0-.44.36-.81.81-.81a.815.815 0 0 1 0 1.63.816.816 0 0 1-.81-.82zm0-8.101c0-.45.36-.81.81-.81.45 0 .81.36.81.81 0 .44-.36.81-.81.81a.812.812 0 0 1-.81-.81zm0-8.109c0-.45.36-.81.81-.81.45 0 .81.36.81.81 0 .45-.36.81-.81.81a.807.807 0 0 1-.81-.81zm0-8.11c0-.44.36-.81.81-.81.45 0 .81.37.81.81 0 .45-.36.81-.81.81a.808.808 0 0 1-.81-.81zm0-8.1c0-.45.36-.81.81-.81.45 0 .81.36.81.81 0 .44-.36.81-.81.81-.45 0-.81-.37-.81-.81zm0-8.111c0-.45.36-.81.81-.81.45 0 .81.36.81.81 0 .45-.36.81-.81.81-.45 0-.81-.36-.81-.81zm0-8.11c0-.45.36-.81.81-.81.45 0 .81.36.81.81 0 .45-.36.81-.81.81a.806.806 0 0 1-.81-.81zm0-8.1c0-.45.36-.82.81-.82a.815.815 0 0 1 0 1.63.812.812 0 0 1-.81-.81zm0-8.11c0-.45.36-.81.81-.81.45 0 .81.36.81.81 0 .45-.36.81-.81.81a.805.805 0 0 1-.81-.81zm0-8.109c0-.45.36-.81.81-.81.45 0 .81.36.81.81 0 .45-.36.81-.81.81a.807.807 0 0 1-.81-.81zm0-8.11c0-.44.36-.81.81-.81a.815.815 0 0 1 0 1.63.816.816 0 0 1-.81-.82zm0-8.1c0-.45.36-.81.81-.81.45 0 .81.36.81.81 0 .44-.36.81-.81.81-.45 0-.81-.37-.81-.81zm0-8.111c0-.45.36-.81.81-.81.45 0 .81.36.81.81 0 .45-.36.81-.81.81-.45 0-.81-.36-.81-.81zm0-8.11c0-.44.36-.81.81-.81.45 0 .81.37.81.81 0 .45-.36.81-.81.81a.806.806 0 0 1-.81-.81zm0-8.1c0-.45.36-.81.81-.81.45 0 .81.36.81.81 0 .44-.36.81-.81.81a.812.812 0 0 1-.81-.81zm0-8.11c0-.45.36-.81.81-.81.45 0 .81.36.81.81 0 .45-.36.81-.81.81a.805.805 0 0 1-.81-.81zm0-8.109c0-.44.36-.81.81-.81.45 0 .81.37.81.81 0 .45-.36.81-.81.81a.807.807 0 0 1-.81-.81zm0-8.101c0-.45.36-.82.81-.82a.815.815 0 0 1 0 1.63.812.812 0 0 1-.81-.81zm0-8.109c0-.45.36-.81.81-.81.45 0 .81.36.81.81 0 .45-.36.81-.81.81a.807.807 0 0 1-.81-.81zm0-8.111c0-.45.36-.81.81-.81.45 0 .81.36.81.81 0 .45-.36.81-.81.81-.45 0-.81-.36-.81-.81zm0-8.11c0-.44.36-.81.81-.81a.815.815 0 0 1 0 1.63.814.814 0 0 1-.81-.82zm0-8.1c0-.45.36-.81.81-.81.45 0 .81.36.81.81 0 .44-.36.81-.81.81a.812.812 0 0 1-.81-.81zm0-8.11c0-.45.36-.81.81-.81.45 0 .81.36.81.81 0 .45-.36.81-.81.81a.805.805 0 0 1-.81-.81zm0-8.109c0-.44.36-.81.81-.81.45 0 .81.37.81.81 0 .45-.36.81-.81.81a.807.807 0 0 1-.81-.81zm0-8.101c0-.45.36-.81.81-.81.45 0 .81.36.81.81 0 .45-.36.81-.81.81a.805.805 0 0 1-.81-.81zm0-8.109c0-.45.36-.81.81-.81.45 0 .81.36.81.81 0 .45-.36.81-.81.81a.807.807 0 0 1-.81-.81zm0-8.11c0-.44.36-.81.81-.81.45 0 .81.37.81.81 0 .45-.36.81-.81.81a.808.808 0 0 1-.81-.81zm0-8.1c0-.45.36-.81.81-.81.45 0 .81.36.81.81 0 .44-.36.81-.81.81-.45 0-.81-.37-.81-.81zm0-8.111c0-.45.36-.81.81-.81.45 0 .81.36.81.81 0 .45-.36.81-.81.81a.806.806 0 0 1-.81-.81zm0-8.11c0-.45.36-.81.81-.81.45 0 .81.36.81.81 0 .45-.36.81-.81.81a.805.805 0 0 1-.81-.81zm0-8.109c0-.44.36-.81.81-.81a.815.815 0 0 1 0 1.63.816.816 0 0 1-.81-.82zm0-8.101c0-.45.36-.81.81-.81.45 0 .81.36.81.81 0 .45-.36.81-.81.81a.805.805 0 0 1-.81-.81zm0-8.109c0-.45.36-.81.81-.81.45 0 .81.36.81.81 0 .45-.36.81-.81.81a.807.807 0 0 1-.81-.81zm0-8.11c0-.44.36-.81.81-.81a.815.815 0 0 1 0 1.63.816.816 0 0 1-.81-.82zm0-8.1c0-.45.36-.81.81-.81.45 0 .81.36.81.81 0 .45-.36.81-.81.81a.807.807 0 0 1-.81-.81zm0-8.111c0-.45.36-.81.81-.81.45 0 .81.36.81.81 0 .45-.36.81-.81.81a.806.806 0 0 1-.81-.81zm0-8.11c0-.44.36-.81.81-.81.45 0 .81.37.81.81 0 .45-.36.81-.81.81a.805.805 0 0 1-.81-.81zm0-8.1c0-.45.36-.81.81-.81.45 0 .81.36.81.81 0 .44-.36.81-.81.81-.45 0-.81-.37-.81-.81zm0-8.11c0-.45.36-.81.81-.81.45 0 .81.36.81.81 0 .45-.36.81-.81.81a.805.805 0 0 1-.81-.81zm0-8.109c0-.45.36-.81.81-.81.45 0 .81.36.81.81 0 .45-.36.81-.81.81a.807.807 0 0 1-.81-.81zm0-8.1c0-.45.36-.82.81-.82a.815.815 0 0 1 0 1.63.814.814 0 0 1-.81-.81zm0-8.11c0-.45.36-.81.81-.81.45 0 .81.36.81.81 0 .45-.36.81-.81.81a.807.807 0 0 1-.81-.81zm0-8.111c0-.45.36-.81.81-.81.45 0 .81.36.81.81 0 .45-.36.81-.81.81-.45 0-.81-.36-.81-.81zm0-8.099c0-.45.36-.81.81-.81.45 0 .81.36.81.81 0 .44-.36.81-.81.81-.45 0-.81-.37-.81-.81zm0-8.111c0-.45.36-.81.81-.81.45 0 .81.36.81.81 0 .44-.36.81-.81.81-.45 0-.81-.37-.81-.81zm0-8.11c0-.45.36-.81.81-.81.45 0 .81.36.81.81 0 .45-.36.81-.81.81a.805.805 0 0 1-.81-.81zm0-8.109c0-.44.36-.81.81-.81.45 0 .81.37.81.81 0 .45-.36.81-.81.81a.807.807 0 0 1-.81-.81zm0-8.1c0-.45.36-.81.81-.81.45 0 .81.36.81.81 0 .45-.36.81-.81.81-.45 0-.81-.36-.81-.81zm0-8.11c0-.45.36-.81.81-.81.45 0 .81.36.81.81 0 .45-.36.81-.81.81a.807.807 0 0 1-.81-.81zm0-8.111c0-.44.36-.81.81-.81a.815.815 0 0 1 0 1.63.815.815 0 0 1-.81-.82zm0-8.099c0-.45.36-.81.81-.81.45 0 .81.36.81.81 0 .44-.36.81-.81.81-.45 0-.81-.37-.81-.81zm361.92 705.3c0-.45.36-.81.81-.81.45 0 .81.36.81.81 0 .45-.36.81-.81.81-.45 0-.81-.36-.81-.81zm0-8.101c0-.45.36-.82.81-.82a.815.815 0 0 1 0 1.63c-.45 0-.81-.37-.81-.81zm0-8.109c0-.45.36-.81.81-.81.45 0 .81.36.81.81 0 .45-.36.81-.81.81-.45 0-.81-.36-.81-.81zm0-8.11c0-.45.36-.81.81-.81.45 0 .81.36.81.81 0 .45-.36.81-.81.81a.807.807 0 0 1-.81-.81zm0-8.111c0-.44.36-.81.81-.81.45 0 .81.37.81.81 0 .45-.36.81-.81.81a.806.806 0 0 1-.81-.81zm0-8.099c0-.45.36-.81.81-.81.45 0 .81.36.81.81 0 .44-.36.81-.81.81a.814.814 0 0 1-.81-.81zm0-8.111c0-.45.36-.81.81-.81.45 0 .81.36.81.81 0 .45-.36.81-.81.81a.806.806 0 0 1-.81-.81zm0-8.109c0-.45.36-.81.81-.81.45 0 .81.36.81.81 0 .45-.36.81-.81.81-.45 0-.81-.36-.81-.81zm0-8.101c0-.45.36-.81.81-.81.45 0 .81.36.81.81 0 .44-.36.81-.81.81-.45 0-.81-.37-.81-.81zm0-8.109c0-.45.36-.81.81-.81.45 0 .81.36.81.81 0 .45-.36.81-.81.81-.45 0-.81-.36-.81-.81zm0-8.11c0-.45.36-.81.81-.81.45 0 .81.36.81.81 0 .45-.36.81-.81.81a.807.807 0 0 1-.81-.81zm0-8.111c0-.44.36-.81.81-.81a.815.815 0 0 1 0 1.63.814.814 0 0 1-.81-.82zm0-8.099c0-.45.36-.81.81-.81.45 0 .81.36.81.81 0 .45-.36.81-.81.81a.808.808 0 0 1-.81-.81zm0-8.111c0-.45.36-.81.81-.81.45 0 .81.36.81.81 0 .45-.36.81-.81.81a.806.806 0 0 1-.81-.81zm0-8.109c0-.44.36-.81.81-.81a.815.815 0 0 1 0 1.63.816.816 0 0 1-.81-.82zm0-8.101c0-.45.36-.81.81-.81.45 0 .81.36.81.81 0 .45-.36.81-.81.81a.806.806 0 0 1-.81-.81zm0-8.109c0-.45.36-.81.81-.81.45 0 .81.36.81.81 0 .45-.36.81-.81.81-.45 0-.81-.36-.81-.81zm0-8.11c0-.44.36-.81.81-.81.45 0 .81.37.81.81 0 .45-.36.81-.81.81a.807.807 0 0 1-.81-.81zm0-8.1c0-.45.36-.81.81-.81.45 0 .81.36.81.81 0 .44-.36.81-.81.81-.45 0-.81-.37-.81-.81zm0-8.11c0-.45.36-.81.81-.81.45 0 .81.36.81.81 0 .45-.36.81-.81.81a.808.808 0 0 1-.81-.81zm0-8.111c0-.45.36-.81.81-.81.45 0 .81.36.81.81 0 .45-.36.81-.81.81a.806.806 0 0 1-.81-.81zm0-8.1c0-.45.36-.82.81-.82a.815.815 0 0 1 0 1.63.812.812 0 0 1-.81-.81zm0-8.11c0-.45.36-.81.81-.81.45 0 .81.36.81.81 0 .45-.36.81-.81.81a.806.806 0 0 1-.81-.81zm0-8.109c0-.45.36-.81.81-.81.45 0 .81.36.81.81 0 .45-.36.81-.81.81-.45 0-.81-.36-.81-.81zm0-8.101c0-.45.36-.82.81-.82.45 0 .81.37.81.82 0 .44-.36.8-.81.8a.804.804 0 0 1-.81-.8zm0-8.109c0-.45.36-.81.81-.81.45 0 .81.36.81.81 0 .44-.36.81-.81.81-.45 0-.81-.37-.81-.81zm0-8.11c0-.45.36-.81.81-.81.45 0 .81.36.81.81 0 .45-.36.81-.81.81a.808.808 0 0 1-.81-.81zm0-8.111c0-.44.36-.81.81-.81.45 0 .81.37.81.81 0 .45-.36.81-.81.81a.806.806 0 0 1-.81-.81zm0-8.1c0-.45.36-.81.81-.81.45 0 .81.36.81.81 0 .44-.36.81-.81.81a.812.812 0 0 1-.81-.81zm0-8.11c0-.45.36-.81.81-.81.45 0 .81.36.81.81 0 .45-.36.81-.81.81a.806.806 0 0 1-.81-.81zm0-8.109c0-.44.36-.81.81-.81.45 0 .81.37.81.81 0 .45-.36.81-.81.81-.45 0-.81-.36-.81-.81zm0-8.101c0-.45.36-.81.81-.81.45 0 .81.36.81.81 0 .44-.36.81-.81.81a.812.812 0 0 1-.81-.81zm0-8.109c0-.45.36-.81.81-.81.45 0 .81.36.81.81 0 .45-.36.81-.81.81a.807.807 0 0 1-.81-.81zm0-8.11c0-.44.36-.81.81-.81.45 0 .81.37.81.81 0 .45-.36.81-.81.81a.808.808 0 0 1-.81-.81zm0-8.111c0-.44.36-.81.81-.81a.815.815 0 0 1 0 1.63.814.814 0 0 1-.81-.82zm0-8.1c0-.45.36-.81.81-.81.45 0 .81.36.81.81 0 .44-.36.81-.81.81a.812.812 0 0 1-.81-.81zm0-8.11c0-.45.36-.81.81-.81.45 0 .81.36.81.81 0 .45-.36.81-.81.81a.806.806 0 0 1-.81-.81zm0-8.109c0-.44.36-.81.81-.81a.815.815 0 0 1 0 1.63.816.816 0 0 1-.81-.82zm0-8.101c0-.45.36-.81.81-.81.45 0 .81.36.81.81 0 .44-.36.81-.81.81a.812.812 0 0 1-.81-.81zm0-8.109c0-.45.36-.81.81-.81.45 0 .81.36.81.81 0 .45-.36.81-.81.81a.807.807 0 0 1-.81-.81zm0-8.11c0-.44.36-.81.81-.81.45 0 .81.37.81.81 0 .45-.36.81-.81.81a.808.808 0 0 1-.81-.81zm0-8.1c0-.45.36-.81.81-.81.45 0 .81.36.81.81 0 .44-.36.81-.81.81-.45 0-.81-.37-.81-.81zm0-8.111c0-.45.36-.81.81-.81.45 0 .81.36.81.81 0 .45-.36.81-.81.81-.45 0-.81-.36-.81-.81zm0-8.11c0-.45.36-.81.81-.81.45 0 .81.36.81.81 0 .45-.36.81-.81.81a.806.806 0 0 1-.81-.81zm0-8.1c0-.45.36-.82.81-.82a.815.815 0 0 1 0 1.63.812.812 0 0 1-.81-.81zm0-8.11c0-.45.36-.81.81-.81.45 0 .81.36.81.81 0 .45-.36.81-.81.81a.805.805 0 0 1-.81-.81zm0-8.109c0-.45.36-.81.81-.81.45 0 .81.36.81.81 0 .45-.36.81-.81.81a.807.807 0 0 1-.81-.81zm0-8.11c0-.44.36-.81.81-.81a.815.815 0 0 1 0 1.63.816.816 0 0 1-.81-.82zm0-8.1c0-.45.36-.81.81-.81.45 0 .81.36.81.81 0 .44-.36.81-.81.81-.45 0-.81-.37-.81-.81zm0-8.111c0-.45.36-.81.81-.81.45 0 .81.36.81.81 0 .45-.36.81-.81.81-.45 0-.81-.36-.81-.81zm0-8.11c0-.44.36-.81.81-.81.45 0 .81.37.81.81 0 .45-.36.81-.81.81a.806.806 0 0 1-.81-.81zm0-8.1c0-.45.36-.81.81-.81.45 0 .81.36.81.81 0 .44-.36.81-.81.81a.812.812 0 0 1-.81-.81zm0-8.11c0-.45.36-.81.81-.81.45 0 .81.36.81.81 0 .45-.36.81-.81.81a.805.805 0 0 1-.81-.81zm0-8.109c0-.44.36-.81.81-.81.45 0 .81.37.81.81 0 .45-.36.81-.81.81a.807.807 0 0 1-.81-.81zm0-8.101c0-.45.36-.82.81-.82a.815.815 0 0 1 0 1.63.812.812 0 0 1-.81-.81zm0-8.109c0-.45.36-.81.81-.81.45 0 .81.36.81.81 0 .45-.36.81-.81.81a.807.807 0 0 1-.81-.81zm0-8.111c0-.45.36-.81.81-.81.45 0 .81.36.81.81 0 .45-.36.81-.81.81-.45 0-.81-.36-.81-.81zm0-8.11c0-.44.36-.81.81-.81a.815.815 0 0 1 0 1.63.814.814 0 0 1-.81-.82zm0-8.1c0-.45.36-.81.81-.81.45 0 .81.36.81.81 0 .44-.36.81-.81.81a.812.812 0 0 1-.81-.81zm0-8.11c0-.45.36-.81.81-.81.45 0 .81.36.81.81 0 .45-.36.81-.81.81a.805.805 0 0 1-.81-.81zm0-8.109c0-.44.36-.81.81-.81.45 0 .81.37.81.81 0 .45-.36.81-.81.81a.807.807 0 0 1-.81-.81zm0-8.101c0-.45.36-.81.81-.81.45 0 .81.36.81.81 0 .45-.36.81-.81.81a.805.805 0 0 1-.81-.81zm0-8.109c0-.45.36-.81.81-.81.45 0 .81.36.81.81 0 .45-.36.81-.81.81a.807.807 0 0 1-.81-.81zm0-8.11c0-.44.36-.81.81-.81.45 0 .81.37.81.81 0 .45-.36.81-.81.81a.808.808 0 0 1-.81-.81zm0-8.1c0-.45.36-.81.81-.81.45 0 .81.36.81.81 0 .44-.36.81-.81.81-.45 0-.81-.37-.81-.81zm0-8.111c0-.45.36-.81.81-.81.45 0 .81.36.81.81 0 .45-.36.81-.81.81a.806.806 0 0 1-.81-.81zm0-8.11c0-.45.36-.81.81-.81.45 0 .81.36.81.81 0 .45-.36.81-.81.81a.805.805 0 0 1-.81-.81zm0-8.109c0-.44.36-.81.81-.81a.815.815 0 0 1 0 1.63.816.816 0 0 1-.81-.82zm0-8.101c0-.45.36-.81.81-.81.45 0 .81.36.81.81 0 .45-.36.81-.81.81a.805.805 0 0 1-.81-.81zm0-8.109c0-.45.36-.81.81-.81.45 0 .81.36.81.81 0 .45-.36.81-.81.81a.807.807 0 0 1-.81-.81zm0-8.11c0-.44.36-.81.81-.81a.815.815 0 0 1 0 1.63.816.816 0 0 1-.81-.82zm0-8.1c0-.45.36-.81.81-.81.45 0 .81.36.81.81 0 .45-.36.81-.81.81a.807.807 0 0 1-.81-.81zm0-8.111c0-.45.36-.81.81-.81.45 0 .81.36.81.81 0 .45-.36.81-.81.81a.806.806 0 0 1-.81-.81zm0-8.11c0-.44.36-.81.81-.81.45 0 .81.37.81.81 0 .45-.36.81-.81.81a.805.805 0 0 1-.81-.81zm0-8.1c0-.45.36-.81.81-.81.45 0 .81.36.81.81 0 .44-.36.81-.81.81-.45 0-.81-.37-.81-.81zm0-8.11c0-.45.36-.81.81-.81.45 0 .81.36.81.81 0 .45-.36.81-.81.81a.805.805 0 0 1-.81-.81zm0-8.109c0-.45.36-.81.81-.81.45 0 .81.36.81.81 0 .45-.36.81-.81.81a.807.807 0 0 1-.81-.81zm0-8.1c0-.45.36-.82.81-.82a.815.815 0 0 1 0 1.63.814.814 0 0 1-.81-.81zm0-8.11c0-.45.36-.81.81-.81.45 0 .81.36.81.81 0 .45-.36.81-.81.81a.807.807 0 0 1-.81-.81zm0-8.111c0-.45.36-.81.81-.81.45 0 .81.36.81.81 0 .45-.36.81-.81.81-.45 0-.81-.36-.81-.81zm0-8.099c0-.45.36-.81.81-.81.45 0 .81.36.81.81 0 .44-.36.81-.81.81-.45 0-.81-.37-.81-.81zm0-8.111c0-.45.36-.81.81-.81.45 0 .81.36.81.81 0 .44-.36.81-.81.81-.45 0-.81-.37-.81-.81zm0-8.11c0-.45.36-.81.81-.81.45 0 .81.36.81.81 0 .45-.36.81-.81.81a.805.805 0 0 1-.81-.81zm0-8.109c0-.44.36-.81.81-.81.45 0 .81.37.81.81 0 .45-.36.81-.81.81a.807.807 0 0 1-.81-.81zm0-8.1c0-.45.36-.81.81-.81.45 0 .81.36.81.81 0 .45-.36.81-.81.81-.45 0-.81-.36-.81-.81zm0-8.11c0-.45.36-.81.81-.81.45 0 .81.36.81.81 0 .45-.36.81-.81.81a.807.807 0 0 1-.81-.81zm0-8.111c0-.44.36-.81.81-.81a.815.815 0 0 1 0 1.63.815.815 0 0 1-.81-.82zm0-8.099c0-.45.36-.81.81-.81.45 0 .81.36.81.81 0 .44-.36.81-.81.81-.45 0-.81-.37-.81-.81z"/><path d="M1201.59 1103.776a.815.815 0 0 1 1.63 0 .815.815 0 0 1-1.63 0zm0-8.101c0-.45.37-.82.81-.82.45 0 .82.37.82.82 0 .44-.37.81-.82.81a.82.82 0 0 1-.81-.81zm0-8.109a.815.815 0 0 1 1.63 0 .815.815 0 0 1-1.63 0zm0-8.11a.815.815 0 0 1 1.63 0 .815.815 0 0 1-1.63 0zm0-8.111c0-.44.37-.81.81-.81.45 0 .82.37.82.81a.815.815 0 0 1-1.63 0zm0-8.099a.815.815 0 0 1 1.63 0c0 .44-.37.81-.82.81a.82.82 0 0 1-.81-.81zm0-8.111a.815.815 0 0 1 1.63 0 .815.815 0 0 1-1.63 0zm0-8.109a.815.815 0 0 1 1.63 0 .815.815 0 0 1-1.63 0zm0-8.101a.815.815 0 0 1 1.63 0c0 .44-.37.81-.82.81a.82.82 0 0 1-.81-.81zm0-8.109a.815.815 0 0 1 1.63 0 .815.815 0 0 1-1.63 0zm0-8.11a.815.815 0 0 1 1.63 0 .815.815 0 0 1-1.63 0zm0-8.111c0-.44.37-.81.81-.81.45 0 .82.37.82.81 0 .45-.37.82-.82.82a.82.82 0 0 1-.81-.82zm0-8.099a.815.815 0 0 1 1.63 0 .815.815 0 0 1-1.63 0zm0-8.111a.815.815 0 0 1 1.63 0 .815.815 0 0 1-1.63 0zm0-8.109c0-.44.37-.81.81-.81.45 0 .82.37.82.81 0 .45-.37.82-.82.82a.822.822 0 0 1-.81-.82zm0-8.101a.815.815 0 0 1 1.63 0 .815.815 0 0 1-1.63 0zm0-8.109a.815.815 0 0 1 1.63 0 .815.815 0 0 1-1.63 0zm0-8.11c0-.44.37-.81.81-.81.45 0 .82.37.82.81a.815.815 0 0 1-1.63 0zm0-8.1a.815.815 0 0 1 1.63 0c0 .44-.37.81-.82.81a.82.82 0 0 1-.81-.81zm0-8.11a.815.815 0 0 1 1.63 0 .815.815 0 0 1-1.63 0zm0-8.111a.815.815 0 0 1 1.63 0 .815.815 0 0 1-1.63 0zm0-8.1c0-.45.37-.82.81-.82.45 0 .82.37.82.82 0 .44-.37.81-.82.81a.819.819 0 0 1-.81-.81zm0-8.11a.815.815 0 0 1 1.63 0 .815.815 0 0 1-1.63 0zm0-8.109a.815.815 0 0 1 1.63 0 .815.815 0 0 1-1.63 0zm0-8.101c0-.45.37-.82.81-.82.45 0 .82.37.82.82 0 .44-.37.8-.82.8a.81.81 0 0 1-.81-.8zm0-8.109a.815.815 0 0 1 1.63 0c0 .44-.37.81-.82.81a.82.82 0 0 1-.81-.81zm0-8.11a.815.815 0 0 1 1.63 0 .815.815 0 0 1-1.63 0zm0-8.111c0-.44.37-.81.81-.81.45 0 .82.37.82.81a.815.815 0 0 1-1.63 0zm0-8.1a.815.815 0 0 1 1.63 0c0 .44-.37.81-.82.81a.819.819 0 0 1-.81-.81zm0-8.11a.815.815 0 0 1 1.63 0 .815.815 0 0 1-1.63 0zm0-8.109c0-.44.37-.81.81-.81.45 0 .82.37.82.81a.815.815 0 0 1-1.63 0zm0-8.101a.815.815 0 0 1 1.63 0c0 .44-.37.81-.82.81a.819.819 0 0 1-.81-.81zm0-8.109a.815.815 0 0 1 1.63 0 .815.815 0 0 1-1.63 0zm0-8.11c0-.44.37-.81.81-.81.45 0 .82.37.82.81a.815.815 0 0 1-1.63 0zm0-8.111c0-.44.37-.81.81-.81.45 0 .82.37.82.81 0 .45-.37.82-.82.82a.82.82 0 0 1-.81-.82zm0-8.1a.815.815 0 0 1 1.63 0c0 .44-.37.81-.82.81a.819.819 0 0 1-.81-.81zm0-8.11a.815.815 0 0 1 1.63 0 .815.815 0 0 1-1.63 0zm0-8.109c0-.44.37-.81.81-.81.45 0 .82.37.82.81 0 .45-.37.82-.82.82a.822.822 0 0 1-.81-.82zm0-8.101a.815.815 0 0 1 1.63 0c0 .44-.37.81-.82.81a.819.819 0 0 1-.81-.81zm0-8.109a.815.815 0 0 1 1.63 0 .815.815 0 0 1-1.63 0zm0-8.11c0-.44.37-.81.81-.81.45 0 .82.37.82.81a.815.815 0 0 1-1.63 0zm0-8.1a.815.815 0 0 1 1.63 0c0 .44-.37.81-.82.81a.82.82 0 0 1-.81-.81zm0-8.111a.815.815 0 0 1 1.63 0 .815.815 0 0 1-1.63 0zm0-8.11a.815.815 0 0 1 1.63 0 .815.815 0 0 1-1.63 0zm0-8.1c0-.45.37-.82.81-.82.45 0 .82.37.82.82 0 .44-.37.81-.82.81a.819.819 0 0 1-.81-.81zm0-8.11a.815.815 0 0 1 1.63 0 .815.815 0 0 1-1.63 0zm0-8.109a.815.815 0 0 1 1.63 0 .815.815 0 0 1-1.63 0zm0-8.11c0-.44.37-.81.81-.81.45 0 .82.37.82.81 0 .45-.37.82-.82.82a.822.822 0 0 1-.81-.82zm0-8.1a.815.815 0 0 1 1.63 0c0 .44-.37.81-.82.81a.82.82 0 0 1-.81-.81zm0-8.111a.815.815 0 0 1 1.63 0 .815.815 0 0 1-1.63 0zm0-8.11c0-.44.37-.81.81-.81.45 0 .82.37.82.81a.815.815 0 0 1-1.63 0zm0-8.1a.815.815 0 0 1 1.63 0c0 .44-.37.81-.82.81a.819.819 0 0 1-.81-.81zm0-8.11a.815.815 0 0 1 1.63 0 .815.815 0 0 1-1.63 0zm0-8.109c0-.44.37-.81.81-.81.45 0 .82.37.82.81a.815.815 0 0 1-1.63 0zm0-8.101c0-.45.37-.82.81-.82.45 0 .82.37.82.82 0 .44-.37.81-.82.81a.819.819 0 0 1-.81-.81zm0-8.109a.815.815 0 0 1 1.63 0 .815.815 0 0 1-1.63 0zm0-8.111a.815.815 0 0 1 1.63 0 .815.815 0 0 1-1.63 0zm0-8.11c0-.44.37-.81.81-.81.45 0 .82.37.82.81 0 .45-.37.82-.82.82a.82.82 0 0 1-.81-.82zm0-8.1a.815.815 0 0 1 1.63 0c0 .44-.37.81-.82.81a.819.819 0 0 1-.81-.81zm0-8.11a.815.815 0 0 1 1.63 0 .815.815 0 0 1-1.63 0zm0-8.109c0-.44.37-.81.81-.81.45 0 .82.37.82.81a.815.815 0 0 1-1.63 0zm0-8.101a.815.815 0 0 1 1.63 0 .815.815 0 0 1-1.63 0zm0-8.109a.815.815 0 0 1 1.63 0 .815.815 0 0 1-1.63 0zm0-8.11c0-.44.37-.81.81-.81.45 0 .82.37.82.81a.815.815 0 0 1-1.63 0zm0-8.1a.815.815 0 0 1 1.63 0c0 .44-.37.81-.82.81a.82.82 0 0 1-.81-.81zm0-8.111a.815.815 0 0 1 1.63 0 .815.815 0 0 1-1.63 0zm0-8.11a.815.815 0 0 1 1.63 0 .815.815 0 0 1-1.63 0zm0-8.109c0-.44.37-.81.81-.81.45 0 .82.37.82.81 0 .45-.37.82-.82.82a.823.823 0 0 1-.81-.82zm0-8.101a.815.815 0 0 1 1.63 0 .815.815 0 0 1-1.63 0zm0-8.109a.815.815 0 0 1 1.63 0 .815.815 0 0 1-1.63 0zm0-8.11c0-.44.37-.81.81-.81.45 0 .82.37.82.81 0 .45-.37.82-.82.82a.822.822 0 0 1-.81-.82zm0-8.1a.815.815 0 0 1 1.63 0 .815.815 0 0 1-1.63 0zm0-8.111a.815.815 0 0 1 1.63 0 .815.815 0 0 1-1.63 0zm0-8.11c0-.44.37-.81.81-.81.45 0 .82.37.82.81a.815.815 0 0 1-1.63 0zm0-8.1a.815.815 0 0 1 1.63 0c0 .44-.37.81-.82.81a.82.82 0 0 1-.81-.81zm0-8.11a.815.815 0 0 1 1.63 0 .815.815 0 0 1-1.63 0zm0-8.109a.815.815 0 0 1 1.63 0 .815.815 0 0 1-1.63 0zm0-8.1c0-.45.37-.82.81-.82.45 0 .82.37.82.82 0 .44-.37.81-.82.81a.82.82 0 0 1-.81-.81zm0-8.11a.815.815 0 0 1 1.63 0 .815.815 0 0 1-1.63 0zm0-8.111a.815.815 0 0 1 1.63 0 .815.815 0 0 1-1.63 0zm0-8.099a.815.815 0 0 1 1.63 0c0 .44-.37.81-.82.81a.82.82 0 0 1-.81-.81zm0-8.111a.815.815 0 0 1 1.63 0c0 .44-.37.81-.82.81a.82.82 0 0 1-.81-.81zm0-8.11a.815.815 0 0 1 1.63 0 .815.815 0 0 1-1.63 0zm0-8.109c0-.44.37-.81.81-.81.45 0 .82.37.82.81a.815.815 0 0 1-1.63 0zm0-8.1a.815.815 0 0 1 1.63 0 .815.815 0 0 1-1.63 0zm0-8.11a.815.815 0 0 1 1.63 0 .815.815 0 0 1-1.63 0zm0-8.111c0-.44.37-.81.81-.81.45 0 .82.37.82.81 0 .45-.37.82-.82.82a.821.821 0 0 1-.81-.82zm0-8.099a.815.815 0 0 1 1.63 0c0 .44-.37.81-.82.81a.82.82 0 0 1-.81-.81zm-361.92 705.3c0-.45.36-.81.81-.81.45 0 .81.36.81.81 0 .45-.36.81-.81.81-.45 0-.81-.36-.81-.81zm0-8.101c0-.45.36-.82.81-.82a.815.815 0 0 1 0 1.63c-.45 0-.81-.37-.81-.81zm0-8.109c0-.45.36-.81.81-.81.45 0 .81.36.81.81 0 .45-.36.81-.81.81-.45 0-.81-.36-.81-.81zm0-8.11c0-.45.36-.81.81-.81.45 0 .81.36.81.81 0 .45-.36.81-.81.81a.807.807 0 0 1-.81-.81zm0-8.111c0-.44.36-.81.81-.81.45 0 .81.37.81.81 0 .45-.36.81-.81.81a.806.806 0 0 1-.81-.81zm0-8.099c0-.45.36-.81.81-.81.45 0 .81.36.81.81 0 .44-.36.81-.81.81a.814.814 0 0 1-.81-.81zm0-8.111c0-.45.36-.81.81-.81.45 0 .81.36.81.81 0 .45-.36.81-.81.81a.806.806 0 0 1-.81-.81zm0-8.109c0-.45.36-.81.81-.81.45 0 .81.36.81.81 0 .45-.36.81-.81.81-.45 0-.81-.36-.81-.81zm0-8.101c0-.45.36-.81.81-.81.45 0 .81.36.81.81 0 .44-.36.81-.81.81-.45 0-.81-.37-.81-.81zm0-8.109c0-.45.36-.81.81-.81.45 0 .81.36.81.81 0 .45-.36.81-.81.81-.45 0-.81-.36-.81-.81zm0-8.11c0-.45.36-.81.81-.81.45 0 .81.36.81.81 0 .45-.36.81-.81.81a.807.807 0 0 1-.81-.81zm0-8.111c0-.44.36-.81.81-.81a.815.815 0 0 1 0 1.63.814.814 0 0 1-.81-.82zm0-8.099c0-.45.36-.81.81-.81.45 0 .81.36.81.81 0 .45-.36.81-.81.81a.808.808 0 0 1-.81-.81zm0-8.111c0-.45.36-.81.81-.81.45 0 .81.36.81.81 0 .45-.36.81-.81.81a.806.806 0 0 1-.81-.81zm0-8.109c0-.44.36-.81.81-.81a.815.815 0 0 1 0 1.63.816.816 0 0 1-.81-.82zm0-8.101c0-.45.36-.81.81-.81.45 0 .81.36.81.81 0 .45-.36.81-.81.81a.806.806 0 0 1-.81-.81zm0-8.109c0-.45.36-.81.81-.81.45 0 .81.36.81.81 0 .45-.36.81-.81.81-.45 0-.81-.36-.81-.81zm0-8.11c0-.44.36-.81.81-.81.45 0 .81.37.81.81 0 .45-.36.81-.81.81a.807.807 0 0 1-.81-.81zm0-8.1c0-.45.36-.81.81-.81.45 0 .81.36.81.81 0 .44-.36.81-.81.81-.45 0-.81-.37-.81-.81zm0-8.11c0-.45.36-.81.81-.81.45 0 .81.36.81.81 0 .45-.36.81-.81.81a.808.808 0 0 1-.81-.81zm0-8.111c0-.45.36-.81.81-.81.45 0 .81.36.81.81 0 .45-.36.81-.81.81a.806.806 0 0 1-.81-.81zm0-8.1c0-.45.36-.82.81-.82a.815.815 0 0 1 0 1.63.812.812 0 0 1-.81-.81zm0-8.11c0-.45.36-.81.81-.81.45 0 .81.36.81.81 0 .45-.36.81-.81.81a.806.806 0 0 1-.81-.81zm0-8.109c0-.45.36-.81.81-.81.45 0 .81.36.81.81 0 .45-.36.81-.81.81-.45 0-.81-.36-.81-.81zm0-8.101c0-.45.36-.82.81-.82.45 0 .81.37.81.82 0 .44-.36.8-.81.8a.804.804 0 0 1-.81-.8zm0-8.109c0-.45.36-.81.81-.81.45 0 .81.36.81.81 0 .44-.36.81-.81.81-.45 0-.81-.37-.81-.81zm0-8.11c0-.45.36-.81.81-.81.45 0 .81.36.81.81 0 .45-.36.81-.81.81a.808.808 0 0 1-.81-.81zm0-8.111c0-.44.36-.81.81-.81.45 0 .81.37.81.81 0 .45-.36.81-.81.81a.806.806 0 0 1-.81-.81zm0-8.1c0-.45.36-.81.81-.81.45 0 .81.36.81.81 0 .44-.36.81-.81.81a.812.812 0 0 1-.81-.81zm0-8.11c0-.45.36-.81.81-.81.45 0 .81.36.81.81 0 .45-.36.81-.81.81a.806.806 0 0 1-.81-.81zm0-8.109c0-.44.36-.81.81-.81.45 0 .81.37.81.81 0 .45-.36.81-.81.81-.45 0-.81-.36-.81-.81zm0-8.101c0-.45.36-.81.81-.81.45 0 .81.36.81.81 0 .44-.36.81-.81.81a.812.812 0 0 1-.81-.81zm0-8.109c0-.45.36-.81.81-.81.45 0 .81.36.81.81 0 .45-.36.81-.81.81a.807.807 0 0 1-.81-.81zm0-8.11c0-.44.36-.81.81-.81.45 0 .81.37.81.81 0 .45-.36.81-.81.81a.808.808 0 0 1-.81-.81zm0-8.111c0-.44.36-.81.81-.81a.815.815 0 0 1 0 1.63.814.814 0 0 1-.81-.82zm0-8.1c0-.45.36-.81.81-.81.45 0 .81.36.81.81 0 .44-.36.81-.81.81a.812.812 0 0 1-.81-.81zm0-8.11c0-.45.36-.81.81-.81.45 0 .81.36.81.81 0 .45-.36.81-.81.81a.806.806 0 0 1-.81-.81zm0-8.109c0-.44.36-.81.81-.81a.815.815 0 0 1 0 1.63.816.816 0 0 1-.81-.82zm0-8.101c0-.45.36-.81.81-.81.45 0 .81.36.81.81 0 .44-.36.81-.81.81a.812.812 0 0 1-.81-.81zm0-8.109c0-.45.36-.81.81-.81.45 0 .81.36.81.81 0 .45-.36.81-.81.81a.807.807 0 0 1-.81-.81zm0-8.11c0-.44.36-.81.81-.81.45 0 .81.37.81.81 0 .45-.36.81-.81.81a.808.808 0 0 1-.81-.81zm0-8.1c0-.45.36-.81.81-.81.45 0 .81.36.81.81 0 .44-.36.81-.81.81-.45 0-.81-.37-.81-.81zm0-8.111c0-.45.36-.81.81-.81.45 0 .81.36.81.81 0 .45-.36.81-.81.81-.45 0-.81-.36-.81-.81zm0-8.11c0-.45.36-.81.81-.81.45 0 .81.36.81.81 0 .45-.36.81-.81.81a.806.806 0 0 1-.81-.81zm0-8.1c0-.45.36-.82.81-.82a.815.815 0 0 1 0 1.63.812.812 0 0 1-.81-.81zm0-8.11c0-.45.36-.81.81-.81.45 0 .81.36.81.81 0 .45-.36.81-.81.81a.805.805 0 0 1-.81-.81zm0-8.109c0-.45.36-.81.81-.81.45 0 .81.36.81.81 0 .45-.36.81-.81.81a.807.807 0 0 1-.81-.81zm0-8.11c0-.44.36-.81.81-.81a.815.815 0 0 1 0 1.63.816.816 0 0 1-.81-.82zm0-8.1c0-.45.36-.81.81-.81.45 0 .81.36.81.81 0 .44-.36.81-.81.81-.45 0-.81-.37-.81-.81zm0-8.111c0-.45.36-.81.81-.81.45 0 .81.36.81.81 0 .45-.36.81-.81.81-.45 0-.81-.36-.81-.81zm0-8.11c0-.44.36-.81.81-.81.45 0 .81.37.81.81 0 .45-.36.81-.81.81a.806.806 0 0 1-.81-.81zm0-8.1c0-.45.36-.81.81-.81.45 0 .81.36.81.81 0 .44-.36.81-.81.81a.812.812 0 0 1-.81-.81zm0-8.11c0-.45.36-.81.81-.81.45 0 .81.36.81.81 0 .45-.36.81-.81.81a.805.805 0 0 1-.81-.81zm0-8.109c0-.44.36-.81.81-.81.45 0 .81.37.81.81 0 .45-.36.81-.81.81a.807.807 0 0 1-.81-.81zm0-8.101c0-.45.36-.82.81-.82a.815.815 0 0 1 0 1.63.812.812 0 0 1-.81-.81zm0-8.109c0-.45.36-.81.81-.81.45 0 .81.36.81.81 0 .45-.36.81-.81.81a.807.807 0 0 1-.81-.81zm0-8.111c0-.45.36-.81.81-.81.45 0 .81.36.81.81 0 .45-.36.81-.81.81-.45 0-.81-.36-.81-.81zm0-8.11c0-.44.36-.81.81-.81a.815.815 0 0 1 0 1.63.814.814 0 0 1-.81-.82zm0-8.1c0-.45.36-.81.81-.81.45 0 .81.36.81.81 0 .44-.36.81-.81.81a.812.812 0 0 1-.81-.81zm0-8.11c0-.45.36-.81.81-.81.45 0 .81.36.81.81 0 .45-.36.81-.81.81a.805.805 0 0 1-.81-.81zm0-8.109c0-.44.36-.81.81-.81.45 0 .81.37.81.81 0 .45-.36.81-.81.81a.807.807 0 0 1-.81-.81zm0-8.101c0-.45.36-.81.81-.81.45 0 .81.36.81.81 0 .45-.36.81-.81.81a.805.805 0 0 1-.81-.81zm0-8.109c0-.45.36-.81.81-.81.45 0 .81.36.81.81 0 .45-.36.81-.81.81a.807.807 0 0 1-.81-.81zm0-8.11c0-.44.36-.81.81-.81.45 0 .81.37.81.81 0 .45-.36.81-.81.81a.808.808 0 0 1-.81-.81zm0-8.1c0-.45.36-.81.81-.81.45 0 .81.36.81.81 0 .44-.36.81-.81.81-.45 0-.81-.37-.81-.81zm0-8.111c0-.45.36-.81.81-.81.45 0 .81.36.81.81 0 .45-.36.81-.81.81a.806.806 0 0 1-.81-.81zm0-8.11c0-.45.36-.81.81-.81.45 0 .81.36.81.81 0 .45-.36.81-.81.81a.805.805 0 0 1-.81-.81zm0-8.109c0-.44.36-.81.81-.81a.815.815 0 0 1 0 1.63.816.816 0 0 1-.81-.82zm0-8.101c0-.45.36-.81.81-.81.45 0 .81.36.81.81 0 .45-.36.81-.81.81a.805.805 0 0 1-.81-.81zm0-8.109c0-.45.36-.81.81-.81.45 0 .81.36.81.81 0 .45-.36.81-.81.81a.807.807 0 0 1-.81-.81zm0-8.11c0-.44.36-.81.81-.81a.815.815 0 0 1 0 1.63.816.816 0 0 1-.81-.82zm0-8.1c0-.45.36-.81.81-.81.45 0 .81.36.81.81 0 .45-.36.81-.81.81a.807.807 0 0 1-.81-.81zm0-8.111c0-.45.36-.81.81-.81.45 0 .81.36.81.81 0 .45-.36.81-.81.81a.806.806 0 0 1-.81-.81zm0-8.11c0-.44.36-.81.81-.81.45 0 .81.37.81.81 0 .45-.36.81-.81.81a.805.805 0 0 1-.81-.81zm0-8.1c0-.45.36-.81.81-.81.45 0 .81.36.81.81 0 .44-.36.81-.81.81-.45 0-.81-.37-.81-.81zm0-8.11c0-.45.36-.81.81-.81.45 0 .81.36.81.81 0 .45-.36.81-.81.81a.805.805 0 0 1-.81-.81zm0-8.109c0-.45.36-.81.81-.81.45 0 .81.36.81.81 0 .45-.36.81-.81.81a.807.807 0 0 1-.81-.81zm0-8.1c0-.45.36-.82.81-.82a.815.815 0 0 1 0 1.63.814.814 0 0 1-.81-.81zm0-8.11c0-.45.36-.81.81-.81.45 0 .81.36.81.81 0 .45-.36.81-.81.81a.807.807 0 0 1-.81-.81zm0-8.111c0-.45.36-.81.81-.81.45 0 .81.36.81.81 0 .45-.36.81-.81.81-.45 0-.81-.36-.81-.81zm0-8.099c0-.45.36-.81.81-.81.45 0 .81.36.81.81 0 .44-.36.81-.81.81-.45 0-.81-.37-.81-.81zm0-8.111c0-.45.36-.81.81-.81.45 0 .81.36.81.81 0 .44-.36.81-.81.81-.45 0-.81-.37-.81-.81zm0-8.11c0-.45.36-.81.81-.81.45 0 .81.36.81.81 0 .45-.36.81-.81.81a.805.805 0 0 1-.81-.81zm0-8.109c0-.44.36-.81.81-.81.45 0 .81.37.81.81 0 .45-.36.81-.81.81a.807.807 0 0 1-.81-.81zm0-8.1c0-.45.36-.81.81-.81.45 0 .81.36.81.81 0 .45-.36.81-.81.81-.45 0-.81-.36-.81-.81zm0-8.11c0-.45.36-.81.81-.81.45 0 .81.36.81.81 0 .45-.36.81-.81.81a.807.807 0 0 1-.81-.81zm0-8.111c0-.44.36-.81.81-.81a.815.815 0 0 1 0 1.63.815.815 0 0 1-.81-.82zm0-8.099c0-.45.36-.81.81-.81.45 0 .81.36.81.81 0 .44-.36.81-.81.81-.45 0-.81-.37-.81-.81z"/><path d="M1017.848 489.057H482.152a3.595 3.595 0 0 1-3.595-3.595v-19.821a3.595 3.595 0 0 1 3.595-3.595h535.696a3.595 3.595 0 0 1 3.595 3.595v19.821a3.596 3.596 0 0 1-3.595 3.595z"/><path d="M1017.848 491.084H482.152a5.628 5.628 0 0 1-5.622-5.622v-19.821c0-3.1 2.522-5.622 5.622-5.622h535.696c3.1 0 5.622 2.522 5.622 5.622v19.821c0 3.1-2.522 5.622-5.622 5.622zm-535.696-27.011a1.57 1.57 0 0 0-1.568 1.568v19.821a1.57 1.57 0 0 0 1.568 1.568h535.696a1.57 1.57 0 0 0 1.568-1.568v-19.821a1.57 1.57 0 0 0-1.568-1.568z"/></g><path d="M1379.772 534.97H844.076a3.595 3.595 0 0 1-3.595-3.595v-19.821a3.595 3.595 0 0 1 3.595-3.595h535.696a3.595 3.595 0 0 1 3.595 3.595v19.821a3.596 3.596 0 0 1-3.595 3.595z" fill="#fff"/><path d="M1379.772 536.997H844.076a5.627 5.627 0 0 1-5.621-5.622v-19.821c0-3.1 2.522-5.622 5.621-5.622h535.696c3.1 0 5.622 2.522 5.622 5.622v19.821a5.63 5.63 0 0 1-5.622 5.622zm-535.696-27.011a1.57 1.57 0 0 0-1.568 1.568v19.821a1.57 1.57 0 0 0 1.568 1.568h535.696a1.57 1.57 0 0 0 1.568-1.568v-19.821a1.57 1.57 0 0 0-1.568-1.568zm-369.114 70.897H120.228a3.595 3.595 0 0 1-3.595-3.595v-19.821a3.595 3.595 0 0 1 3.595-3.595h354.734a3.595 3.595 0 0 1 3.595 3.595v19.821a3.595 3.595 0 0 1-3.595 3.595z" fill="#231f20"/><path d="M474.962 582.91H120.228a5.628 5.628 0 0 1-5.622-5.622v-19.821c0-3.1 2.522-5.622 5.622-5.622h354.734c3.1 0 5.621 2.522 5.621 5.622v19.821a5.627 5.627 0 0 1-5.621 5.622zm-354.734-27.011a1.57 1.57 0 0 0-1.568 1.568v19.821a1.57 1.57 0 0 0 1.568 1.568h354.734a1.57 1.57 0 0 0 1.568-1.568v-19.821a1.57 1.57 0 0 0-1.568-1.568z" fill="#231f20"/><path d="M474.962 856.361H120.228a3.595 3.595 0 0 1-3.595-3.595v-19.821a3.595 3.595 0 0 1 3.595-3.595h354.734a3.595 3.595 0 0 1 3.595 3.595v19.821a3.594 3.594 0 0 1-3.595 3.595z" fill="#fff"/><path d="M474.962 858.388H120.228a5.628 5.628 0 0 1-5.622-5.622v-19.821c0-3.1 2.522-5.622 5.622-5.622h354.734c3.1 0 5.621 2.522 5.621 5.622v19.821a5.627 5.627 0 0 1-5.621 5.622zm-354.734-27.01a1.57 1.57 0 0 0-1.568 1.568v19.821a1.57 1.57 0 0 0 1.568 1.568h354.734a1.57 1.57 0 0 0 1.568-1.568v-19.821a1.57 1.57 0 0 0-1.568-1.568zm897.62-112.756H663.114a3.595 3.595 0 0 1-3.595-3.595v-19.821a3.595 3.595 0 0 1 3.595-3.595h354.734a3.595 3.595 0 0 1 3.595 3.595v19.821a3.595 3.595 0 0 1-3.595 3.595z" fill="#231f20"/><path d="M1017.848 720.649H663.114a5.628 5.628 0 0 1-5.622-5.622v-19.821c0-3.1 2.522-5.622 5.622-5.622h354.734c3.1 0 5.622 2.522 5.622 5.622v19.821c0 3.1-2.522 5.622-5.622 5.622zm-354.734-27.011a1.57 1.57 0 0 0-1.568 1.568v19.821a1.57 1.57 0 0 0 1.568 1.568h354.734a1.57 1.57 0 0 0 1.568-1.568v-19.821a1.57 1.57 0 0 0-1.568-1.568zm535.696-66.842H663.114a3.595 3.595 0 0 1-3.595-3.595V603.38a3.595 3.595 0 0 1 3.595-3.595h535.696a3.595 3.595 0 0 1 3.595 3.595v19.821a3.595 3.595 0 0 1-3.595 3.595z" fill="#231f20"/><path d="M1198.81 628.823H663.114a5.627 5.627 0 0 1-5.621-5.622V603.38c0-3.1 2.522-5.622 5.621-5.622h535.696c3.1 0 5.622 2.522 5.622 5.622v19.821a5.63 5.63 0 0 1-5.622 5.622zm-535.696-27.011a1.57 1.57 0 0 0-1.568 1.568v19.821a1.57 1.57 0 0 0 1.568 1.568h535.696a1.57 1.57 0 0 0 1.568-1.568V603.38a1.57 1.57 0 0 0-1.568-1.568z" fill="#231f20"/><path d="M655.924 672.709H120.228a3.595 3.595 0 0 1-3.595-3.595v-19.821a3.595 3.595 0 0 1 3.595-3.595h535.696a3.595 3.595 0 0 1 3.595 3.595v19.821a3.594 3.594 0 0 1-3.595 3.595z" fill="#fff"/><path d="M655.924 674.736H120.228a5.628 5.628 0 0 1-5.622-5.622v-19.821c0-3.1 2.522-5.622 5.622-5.622h535.696c3.1 0 5.621 2.522 5.621 5.622v19.821a5.627 5.627 0 0 1-5.621 5.622zm-535.696-27.011a1.57 1.57 0 0 0-1.568 1.568v19.821a1.57 1.57 0 0 0 1.568 1.568h535.696a1.57 1.57 0 0 0 1.568-1.568v-19.821a1.57 1.57 0 0 0-1.568-1.568zm716.658 162.723H301.19a3.595 3.595 0 0 1-3.595-3.595v-19.821a3.595 3.595 0 0 1 3.595-3.595h535.696a3.595 3.595 0 0 1 3.595 3.595v19.821a3.594 3.594 0 0 1-3.595 3.595z" fill="#231f20"/><path d="M836.886 812.475H301.19a5.628 5.628 0 0 1-5.622-5.622v-19.821c0-3.1 2.522-5.622 5.622-5.622h535.696c3.1 0 5.622 2.522 5.622 5.622v19.821c0 3.1-2.522 5.622-5.622 5.622zM301.19 785.464a1.57 1.57 0 0 0-1.568 1.568v19.821a1.57 1.57 0 0 0 1.568 1.568h535.696a1.57 1.57 0 0 0 1.568-1.568v-19.821a1.57 1.57 0 0 0-1.568-1.568zm716.658 116.81H482.152a3.595 3.595 0 0 1-3.595-3.595v-19.821a3.595 3.595 0 0 1 3.595-3.595h535.696a3.595 3.595 0 0 1 3.595 3.595v19.821a3.595 3.595 0 0 1-3.595 3.595z" fill="#231f20"/><path d="M1017.848 904.301H482.152a5.628 5.628 0 0 1-5.622-5.622v-19.821c0-3.1 2.522-5.622 5.622-5.622h535.696c3.1 0 5.622 2.522 5.622 5.622v19.821c0 3.1-2.522 5.622-5.622 5.622zm-535.696-27.01a1.57 1.57 0 0 0-1.568 1.568v19.821a1.57 1.57 0 0 0 1.568 1.568h535.696a1.57 1.57 0 0 0 1.568-1.568v-19.821a1.57 1.57 0 0 0-1.568-1.568z" fill="#231f20"/><path d="M1198.81 948.187H663.114a3.595 3.595 0 0 1-3.595-3.595v-19.821a3.595 3.595 0 0 1 3.595-3.595h535.696a3.595 3.595 0 0 1 3.595 3.595v19.821a3.595 3.595 0 0 1-3.595 3.595z" fill="#fff"/><path d="M1198.81 950.214H663.114a5.627 5.627 0 0 1-5.621-5.622v-19.821c0-3.1 2.522-5.622 5.621-5.622h535.696c3.1 0 5.622 2.522 5.622 5.622v19.821a5.629 5.629 0 0 1-5.622 5.622zm-535.696-27.01a1.57 1.57 0 0 0-1.568 1.568v19.821a1.57 1.57 0 0 0 1.568 1.568h535.696a1.57 1.57 0 0 0 1.568-1.568v-19.821a1.57 1.57 0 0 0-1.568-1.568zm-7.19 70.896H120.228a3.595 3.595 0 0 1-3.595-3.595v-19.821a3.595 3.595 0 0 1 3.595-3.595h535.696a3.595 3.595 0 0 1 3.595 3.595v19.821a3.594 3.594 0 0 1-3.595 3.595z" fill="#231f20"/><path d="M655.924 996.127H120.228a5.628 5.628 0 0 1-5.622-5.622v-19.821c0-3.1 2.522-5.622 5.622-5.622h535.696c3.1 0 5.621 2.522 5.621 5.622v19.821a5.627 5.627 0 0 1-5.621 5.622zm-535.696-27.01a1.57 1.57 0 0 0-1.568 1.568v19.821a1.57 1.57 0 0 0 1.568 1.568h535.696a1.57 1.57 0 0 0 1.568-1.568v-19.821a1.57 1.57 0 0 0-1.568-1.568zm1259.544 70.896H844.076a3.595 3.595 0 0 1-3.595-3.595v-19.821a3.595 3.595 0 0 1 3.595-3.595h535.696a3.595 3.595 0 0 1 3.595 3.595v19.821a3.595 3.595 0 0 1-3.595 3.595z" fill="#231f20"/><path d="M1379.772 1042.04H844.076a5.627 5.627 0 0 1-5.621-5.622v-19.821c0-3.1 2.522-5.622 5.621-5.622h535.696c3.1 0 5.622 2.522 5.622 5.622v19.821a5.63 5.63 0 0 1-5.622 5.622zm-535.696-27.01a1.57 1.57 0 0 0-1.568 1.568v19.821a1.57 1.57 0 0 0 1.568 1.568h535.696a1.57 1.57 0 0 0 1.568-1.568v-19.821a1.57 1.57 0 0 0-1.568-1.568z" fill="#231f20"/><path d="m1238.639 750 .386 14.535h26.408z" fill="#fff"/><path d="m575.799 529.676 4.519 11.743 11.744 4.519-11.744 4.519-4.519 11.744-4.523-11.739-11.739-4.524 11.743-4.519zM198.115 737.524l4.519 11.744 11.743 4.519-11.743 4.519-4.519 11.744-4.524-11.74-11.739-4.523 11.744-4.519zm370.923 302.489 4.519 11.744 11.744 4.519-11.744 4.519-4.519 11.744-4.523-11.739-11.739-4.524 11.743-4.519zm782.95-443.202 4.519 11.744 11.744 4.519-11.744 4.519-4.519 11.744-4.523-11.74-11.739-4.523 11.743-4.519zm-240.064-183.219 4.519 11.744 11.743 4.519-11.743 4.519-4.519 11.744-4.524-11.739-11.739-4.524 11.744-4.519z" fill="#231f20"/></svg>